<?xml version="1.0" encoding="UTF-8"?>
<svg id="Layer_2" data-name="Layer 2" xmlns="http://www.w3.org/2000/svg" xmlns:xlink="http://www.w3.org/1999/xlink" viewBox="0 0 469.62 469.35">
  <defs>
    <style>
      .cls-1 {
        fill: url(#radial-gradient);
      }

      .cls-2 {
        font-family: SegoeUIVariable-BoldDisplay, 'Segoe UI Variable';
        font-size: 18px;
        font-variation-settings: 'wght' 700, 'opsz' 36;
        font-weight: 700;
      }
    </style>
    <radialGradient id="radial-gradient" cx="234.81" cy="235.68" fx="412.43" fy="90.95" r="234.24" gradientUnits="userSpaceOnUse">
      <stop offset=".25" stop-color="#ed1c24"/>
      <stop offset=".31" stop-color="#d21c24"/>
      <stop offset=".42" stop-color="#aa1c24"/>
      <stop offset=".52" stop-color="#891c24"/>
      <stop offset=".63" stop-color="#701c24"/>
      <stop offset=".74" stop-color="#5e1c24"/>
      <stop offset=".86" stop-color="#531c24"/>
      <stop offset="1" stop-color="#501c24"/>
    </radialGradient>
  </defs>
  <g id="Layer_1-2" data-name="Layer 1">
    <g>
      <path class="cls-1" d="M133.65,229.06c-3.2,2.78-5.98,5.99-8.36,9.64-2.38,3.66-4.29,7.66-5.73,12.01-1.44,4.35-2.16,8.61-2.16,12.77,0,.5.06,1.51.19,3.02.12,1.51.4,3.06.84,4.64.44,1.57,1.16,2.99,2.16,4.25,1,1.26,2.44,1.89,4.32,1.89s3.73-.69,5.54-2.08c1.82-1.39,3.54-3.21,5.17-5.48s3.07-4.79,4.32-7.57c1.25-2.77,2.38-5.48,3.38-8.13.12-5.17.22-10.27.28-15.32.06-5.04.16-10.21.29-15.5-3.64,1.13-7.05,3.09-10.24,5.86ZM133.65,229.06c-3.2,2.78-5.98,5.99-8.36,9.64-2.38,3.66-4.29,7.66-5.73,12.01-1.44,4.35-2.16,8.61-2.16,12.77,0,.5.06,1.51.19,3.02.12,1.51.4,3.06.84,4.64.44,1.57,1.16,2.99,2.16,4.25,1,1.26,2.44,1.89,4.32,1.89s3.73-.69,5.54-2.08c1.82-1.39,3.54-3.21,5.17-5.48s3.07-4.79,4.32-7.57c1.25-2.77,2.38-5.48,3.38-8.13.12-5.17.22-10.27.28-15.32.06-5.04.16-10.21.29-15.5-3.64,1.13-7.05,3.09-10.24,5.86ZM133.65,229.06c-3.2,2.78-5.98,5.99-8.36,9.64-2.38,3.66-4.29,7.66-5.73,12.01-1.44,4.35-2.16,8.61-2.16,12.77,0,.5.06,1.51.19,3.02.12,1.51.4,3.06.84,4.64.44,1.57,1.16,2.99,2.16,4.25,1,1.26,2.44,1.89,4.32,1.89s3.73-.69,5.54-2.08c1.82-1.39,3.54-3.21,5.17-5.48s3.07-4.79,4.32-7.57c1.25-2.77,2.38-5.48,3.38-8.13.12-5.17.22-10.27.28-15.32.06-5.04.16-10.21.29-15.5-3.64,1.13-7.05,3.09-10.24,5.86ZM217.33,230.01c-.5-2.02-1.37-3.94-2.61-5.77-1.25-1.83-3.3-2.74-6.16-2.74-3.36,0-6.22,1.35-8.58,4.06-2.37,2.71-4.36,6.02-5.98,9.93-1.61,3.91-2.8,8.1-3.54,12.57-.75,4.48-1.12,8.49-1.12,12.01,0,1.14.06,2.53.19,4.16.12,1.64.43,3.25.93,4.83.5,1.57,1.28,2.93,2.33,4.06,1.06,1.14,2.46,1.7,4.2,1.7s3.57-.53,5.5-1.6,3.8-2.46,5.6-4.16c1.8-1.71,3.48-3.6,5.04-5.68,1.55-2.08,2.82-4.06,3.82-5.95.13-4.54.25-9.11.38-13.71.12-4.6.12-9.18,0-13.71ZM217.33,230.01c-.5-2.02-1.37-3.94-2.61-5.77-1.25-1.83-3.3-2.74-6.16-2.74-3.36,0-6.22,1.35-8.58,4.06-2.37,2.71-4.36,6.02-5.98,9.93-1.61,3.91-2.8,8.1-3.54,12.57-.75,4.48-1.12,8.49-1.12,12.01,0,1.14.06,2.53.19,4.16.12,1.64.43,3.25.93,4.83.5,1.57,1.28,2.93,2.33,4.06,1.06,1.14,2.46,1.7,4.2,1.7s3.57-.53,5.5-1.6,3.8-2.46,5.6-4.16c1.8-1.71,3.48-3.6,5.04-5.68,1.55-2.08,2.82-4.06,3.82-5.95.13-4.54.25-9.11.38-13.71.12-4.6.12-9.18,0-13.71ZM133.65,229.06c-3.2,2.78-5.98,5.99-8.36,9.64-2.38,3.66-4.29,7.66-5.73,12.01-1.44,4.35-2.16,8.61-2.16,12.77,0,.5.06,1.51.19,3.02.12,1.51.4,3.06.84,4.64.44,1.57,1.16,2.99,2.16,4.25,1,1.26,2.44,1.89,4.32,1.89s3.73-.69,5.54-2.08c1.82-1.39,3.54-3.21,5.17-5.48s3.07-4.79,4.32-7.57c1.25-2.77,2.38-5.48,3.38-8.13.12-5.17.22-10.27.28-15.32.06-5.04.16-10.21.29-15.5-3.64,1.13-7.05,3.09-10.24,5.86ZM133.65,229.06c-3.2,2.78-5.98,5.99-8.36,9.64-2.38,3.66-4.29,7.66-5.73,12.01-1.44,4.35-2.16,8.61-2.16,12.77,0,.5.06,1.51.19,3.02.12,1.51.4,3.06.84,4.64.44,1.57,1.16,2.99,2.16,4.25,1,1.26,2.44,1.89,4.32,1.89s3.73-.69,5.54-2.08c1.82-1.39,3.54-3.21,5.17-5.48s3.07-4.79,4.32-7.57c1.25-2.77,2.38-5.48,3.38-8.13.12-5.17.22-10.27.28-15.32.06-5.04.16-10.21.29-15.5-3.64,1.13-7.05,3.09-10.24,5.86ZM217.33,230.01c-.5-2.02-1.37-3.94-2.61-5.77-1.25-1.83-3.3-2.74-6.16-2.74-3.36,0-6.22,1.35-8.58,4.06-2.37,2.71-4.36,6.02-5.98,9.93-1.61,3.91-2.8,8.1-3.54,12.57-.75,4.48-1.12,8.49-1.12,12.01,0,1.14.06,2.53.19,4.16.12,1.64.43,3.25.93,4.83.5,1.57,1.28,2.93,2.33,4.06,1.06,1.14,2.46,1.7,4.2,1.7s3.57-.53,5.5-1.6,3.8-2.46,5.6-4.16c1.8-1.71,3.48-3.6,5.04-5.68,1.55-2.08,2.82-4.06,3.82-5.95.13-4.54.25-9.11.38-13.71.12-4.6.12-9.18,0-13.71ZM330.69,307.54c-3.45,2.27-5.17,5.17-5.17,8.7,0,2.14.34,4.06,1.03,5.76.69,1.71,2.16,2.56,4.42,2.56,3.25,0,5.92-2.08,7.98-6.24,2.07-4.16,3.66-9.52,4.79-16.08-5.26,1.26-9.61,3.03-13.05,5.3ZM330.69,307.54c-3.45,2.27-5.17,5.17-5.17,8.7,0,2.14.34,4.06,1.03,5.76.69,1.71,2.16,2.56,4.42,2.56,3.25,0,5.92-2.08,7.98-6.24,2.07-4.16,3.66-9.52,4.79-16.08-5.26,1.26-9.61,3.03-13.05,5.3ZM217.33,230.01c-.5-2.02-1.37-3.94-2.61-5.77-1.25-1.83-3.3-2.74-6.16-2.74-3.36,0-6.22,1.35-8.58,4.06-2.37,2.71-4.36,6.02-5.98,9.93-1.61,3.91-2.8,8.1-3.54,12.57-.75,4.48-1.12,8.49-1.12,12.01,0,1.14.06,2.53.19,4.16.12,1.64.43,3.25.93,4.83.5,1.57,1.28,2.93,2.33,4.06,1.06,1.14,2.46,1.7,4.2,1.7s3.57-.53,5.5-1.6,3.8-2.46,5.6-4.16c1.8-1.71,3.48-3.6,5.04-5.68,1.55-2.08,2.82-4.06,3.82-5.95.13-4.54.25-9.11.38-13.71.12-4.6.12-9.18,0-13.71ZM133.65,229.06c-3.2,2.78-5.98,5.99-8.36,9.64-2.38,3.66-4.29,7.66-5.73,12.01-1.44,4.35-2.16,8.61-2.16,12.77,0,.5.06,1.51.19,3.02.12,1.51.4,3.06.84,4.64.44,1.57,1.16,2.99,2.16,4.25,1,1.26,2.44,1.89,4.32,1.89s3.73-.69,5.54-2.08c1.82-1.39,3.54-3.21,5.17-5.48s3.07-4.79,4.32-7.57c1.25-2.77,2.38-5.48,3.38-8.13.12-5.17.22-10.27.28-15.32.06-5.04.16-10.21.29-15.5-3.64,1.13-7.05,3.09-10.24,5.86ZM322.85,2.01c.94,2.25,1.46,4.72,1.46,7.31,0,5.24-2.12,9.98-5.56,13.42s-8.17,5.55-13.41,5.55h-150.78c-10.48,0-18.97-8.49-18.97-18.97,0-2.29.4-4.48,1.15-6.51C14.09,13.62,0,59.38,0,234.54c0,213.81,21,234.81,234.81,234.81s234.81-21,234.81-234.81c0-179.82-14.85-223.26-146.77-232.53ZM249.35,184.15c1.57-1.58,3.6-2.37,6.11-2.37s4.54.79,6.1,2.37c1.57,1.58,2.35,3.62,2.35,6.14s-.78,4.58-2.35,6.15c-1.56,1.58-3.6,2.36-6.1,2.36s-4.54-.78-6.11-2.36c-1.56-1.57-2.34-3.62-2.34-6.15s.78-4.56,2.34-6.14ZM160.79,251.01c-.13,7.31-.35,13.96-.66,19.96s-.78,10.79-1.41,14.37c-.37,1.92-1.41,3.3-3.1,4.12-1.69.83-3.44,1.18-5.26,1.06-1.81-.13-3.47-.73-4.97-1.82-1.5-1.09-2.26-2.59-2.26-4.51v-6.14c-2.38,3.33-5.16,6.17-8.36,8.54-3.19,2.37-6.92,3.55-11.17,3.55-3.38,0-6.67-.9-9.86-2.69-3.2-1.79-6.01-4.21-8.46-7.27-2.44-3.06-4.38-6.7-5.82-10.92-1.44-4.23-2.16-8.8-2.16-13.71,0-6.81,1.38-12.86,4.13-18.16,2.76-5.29,6.36-9.74,10.8-13.33,4.45-3.59,9.46-6.4,15.03-8.41,5.57-2.02,11.18-3.22,16.81-3.6.13-6.68.22-13.33.28-19.95.07-6.62.1-13.2.1-19.76,0-2.52.81-4.13,2.44-4.82s3.44-.88,5.45-.57c2,.32,3.82.92,5.44,1.8,1.63.88,2.45,1.51,2.45,1.89,0,3.66.06,8.51.18,14.56.13,6.05.22,12.77.29,20.14.06,7.38.12,15,.18,22.88.07,7.88.03,15.48-.09,22.79ZM235.08,255.44c-.31,9.77-.72,19.13-1.22,28.08,0,1.64-.85,3.06-2.54,4.26s-3.51,1.95-5.44,2.27c-1.95.31-3.79.12-5.55-.57-1.75-.69-2.75-2.11-3-4.26-.25-1.38-.38-2.8-.38-4.25s-.06-2.93-.18-4.45c-3.01,3.54-6.58,6.56-10.71,9.08-4.13,2.53-8.52,3.78-13.15,3.78-3.63,0-6.86-.82-9.67-2.45-2.82-1.64-5.17-3.94-7.05-6.91-1.88-2.96-3.32-6.43-4.32-10.4-1-3.97-1.5-8.35-1.5-13.14,0-7.19,1.06-13.58,3.19-19.19,2.13-5.61,4.98-10.4,8.55-14.38,3.57-3.97,7.67-6.99,12.3-9.07s9.39-3.12,14.28-3.12c5.63,0,10.08,1.26,13.33,3.78,3.26,2.52,5.76,5.8,7.52,9.83,1.5.13,2.78.54,3.85,1.23,1.06.7,1.66,1.86,1.78,3.5.25,7.82.22,16.61-.09,26.38ZM264.76,234.45c-.07,5.11-.13,10.49-.19,16.17-.07,5.67-.09,11.03-.09,16.07s-.04,9.43-.1,13.14c-.06,3.72-.09,6.15-.09,7.28s-.82,2.08-2.44,2.84c-1.63.76-3.45,1.16-5.45,1.23-2.01.06-3.88-.25-5.64-.95-1.75-.69-2.75-1.85-3-3.49-.25-1.89-.47-4.7-.66-8.42-.19-3.72-.31-7.94-.37-12.67-.07-4.73-.07-9.67,0-14.84.06-5.17.15-10.12.28-14.85.12-4.73.25-9.01.37-12.86.13-3.84.25-6.71.38-8.6.12-.88,1.03-1.76,2.72-2.65,1.69-.88,3.57-1.51,5.64-1.89,2.06-.38,3.97-.38,5.73,0,1.75.38,2.69,1.45,2.81,3.22,0,1.38.03,4,.1,7.84.06,3.85.06,8.32,0,13.43ZM293.4,229.25c-.37,18.03-.56,36.43-.56,55.22,0,1.64-.69,2.93-2.07,3.87-1.38.95-2.94,1.52-4.69,1.71-1.76.18-3.39,0-4.89-.57s-2.32-1.54-2.44-2.93c-.37-3.41-.69-8.1-.94-14.09s-.44-12.58-.56-19.76c-.13-7.19-.16-14.69-.1-22.51.07-7.81.16-15.31.29-22.5.12-7.18.31-13.74.56-19.66.25-5.93.5-10.59.75-14,.12-2.27.97-3.78,2.54-4.54,1.56-.75,3.25-1,5.07-.75,1.81.25,3.44.88,4.88,1.89,1.44,1.01,2.16,2.14,2.16,3.4.38,18.79.38,37.19,0,55.22ZM376.99,296.1c-.13,1.32-.56,2.46-1.32,3.4-.75.95-1.75,1.35-3,1.23-2.63-.38-5.39-.57-8.27-.57-1,5.3-2.38,10.21-4.13,14.75s-3.98,8.48-6.67,11.82-5.85,5.96-9.48,7.85c-3.64,1.89-7.83,2.84-12.59,2.84-2.75,0-5.2-.6-7.32-1.8-2.13-1.2-3.95-2.81-5.45-4.82-1.5-2.02-2.63-4.29-3.38-6.81-.75-2.52-1.13-5.11-1.13-7.75,0-3.79.81-7.13,2.44-10.03,1.63-2.9,3.85-5.42,6.67-7.56,2.82-2.15,6.11-3.91,9.86-5.3,3.76-1.38,7.77-2.45,12.02-3.21.38-3.78.66-7.69.85-11.72.19-4.04.34-8.07.47-12.11-3.12,3.79-6.36,6.46-9.72,8.04-3.37,1.58-6.55,2.36-9.54,2.36-8.11,0-14.28-5.16-18.52-15.5-4.24-10.34-5.61-25.78-4.11-46.33.12-1.01,1.21-1.95,3.26-2.84,2.04-.88,4.27-1.32,6.69-1.32s4.59.66,6.51,1.98c1.93,1.33,2.76,3.63,2.51,6.91-1,14.49-1.09,25.49-.28,32.99.81,7.51,3.22,11.25,7.23,11.25,1.63,0,3.23-.59,4.79-1.79,1.57-1.2,3.07-2.81,4.51-4.82,1.44-2.02,2.72-4.32,3.85-6.91,1.13-2.58,2.07-5.32,2.82-8.22-.13-6.3-.28-11.69-.47-16.17-.19-4.47-.22-7.47-.09-8.98.12-2.14,1-3.66,2.63-4.54,1.62-.88,3.44-1.32,5.44-1.32s3.85.37,5.54,1.13,2.66,1.64,2.91,2.65c.76,3.78,1.48,8.51,2.17,14.18.68,5.67,1.28,11.82,1.78,18.44s.75,13.55.75,20.8-.37,14.28-1.13,21.08c1.13.13,2.26.26,3.39.38,1.12.13,2.25.26,3.38.38,1.5.25,2.59.97,3.28,2.17.69,1.2.97,2.46.85,3.79ZM325.52,316.24c0,2.14.34,4.06,1.03,5.76.69,1.71,2.16,2.56,4.42,2.56,3.25,0,5.92-2.08,7.98-6.24,2.07-4.16,3.66-9.52,4.79-16.08-5.26,1.26-9.61,3.03-13.05,5.3-3.45,2.27-5.17,5.17-5.17,8.7ZM214.72,224.24c-1.25-1.83-3.3-2.74-6.16-2.74-3.36,0-6.22,1.35-8.58,4.06-2.37,2.71-4.36,6.02-5.98,9.93-1.61,3.91-2.8,8.1-3.54,12.57-.75,4.48-1.12,8.49-1.12,12.01,0,1.14.06,2.53.19,4.16.12,1.64.43,3.25.93,4.83.5,1.57,1.28,2.93,2.33,4.06,1.06,1.14,2.46,1.7,4.2,1.7s3.57-.53,5.5-1.6,3.8-2.46,5.6-4.16c1.8-1.71,3.48-3.6,5.04-5.68,1.55-2.08,2.82-4.06,3.82-5.95.13-4.54.25-9.11.38-13.71.12-4.6.12-9.18,0-13.71-.5-2.02-1.37-3.94-2.61-5.77ZM125.29,238.7c-2.38,3.66-4.29,7.66-5.73,12.01-1.44,4.35-2.16,8.61-2.16,12.77,0,.5.06,1.51.19,3.02.12,1.51.4,3.06.84,4.64.44,1.57,1.16,2.99,2.16,4.25,1,1.26,2.44,1.89,4.32,1.89s3.73-.69,5.54-2.08c1.82-1.39,3.54-3.21,5.17-5.48s3.07-4.79,4.32-7.57c1.25-2.77,2.38-5.48,3.38-8.13.12-5.17.22-10.27.28-15.32.06-5.04.16-10.21.29-15.5-3.64,1.13-7.05,3.09-10.24,5.86-3.2,2.78-5.98,5.99-8.36,9.64ZM133.65,229.06c-3.2,2.78-5.98,5.99-8.36,9.64-2.38,3.66-4.29,7.66-5.73,12.01-1.44,4.35-2.16,8.61-2.16,12.77,0,.5.06,1.51.19,3.02.12,1.51.4,3.06.84,4.64.44,1.57,1.16,2.99,2.16,4.25,1,1.26,2.44,1.89,4.32,1.89s3.73-.69,5.54-2.08c1.82-1.39,3.54-3.21,5.17-5.48s3.07-4.79,4.32-7.57c1.25-2.77,2.38-5.48,3.38-8.13.12-5.17.22-10.27.28-15.32.06-5.04.16-10.21.29-15.5-3.64,1.13-7.05,3.09-10.24,5.86ZM217.33,230.01c-.5-2.02-1.37-3.94-2.61-5.77-1.25-1.83-3.3-2.74-6.16-2.74-3.36,0-6.22,1.35-8.58,4.06-2.37,2.71-4.36,6.02-5.98,9.93-1.61,3.91-2.8,8.1-3.54,12.57-.75,4.48-1.12,8.49-1.12,12.01,0,1.14.06,2.53.19,4.16.12,1.64.43,3.25.93,4.83.5,1.57,1.28,2.93,2.33,4.06,1.06,1.14,2.46,1.7,4.2,1.7s3.57-.53,5.5-1.6,3.8-2.46,5.6-4.16c1.8-1.71,3.48-3.6,5.04-5.68,1.55-2.08,2.82-4.06,3.82-5.95.13-4.54.25-9.11.38-13.71.12-4.6.12-9.18,0-13.71ZM217.33,230.01c-.5-2.02-1.37-3.94-2.61-5.77-1.25-1.83-3.3-2.74-6.16-2.74-3.36,0-6.22,1.35-8.58,4.06-2.37,2.71-4.36,6.02-5.98,9.93-1.61,3.91-2.8,8.1-3.54,12.57-.75,4.48-1.12,8.49-1.12,12.01,0,1.14.06,2.53.19,4.16.12,1.64.43,3.25.93,4.83.5,1.57,1.28,2.93,2.33,4.06,1.06,1.14,2.46,1.7,4.2,1.7s3.57-.53,5.5-1.6,3.8-2.46,5.6-4.16c1.8-1.71,3.48-3.6,5.04-5.68,1.55-2.08,2.82-4.06,3.82-5.95.13-4.54.25-9.11.38-13.71.12-4.6.12-9.18,0-13.71ZM133.65,229.06c-3.2,2.78-5.98,5.99-8.36,9.64-2.38,3.66-4.29,7.66-5.73,12.01-1.44,4.35-2.16,8.61-2.16,12.77,0,.5.06,1.51.19,3.02.12,1.51.4,3.06.84,4.64.44,1.57,1.16,2.99,2.16,4.25,1,1.26,2.44,1.89,4.32,1.89s3.73-.69,5.54-2.08c1.82-1.39,3.54-3.21,5.17-5.48s3.07-4.79,4.32-7.57c1.25-2.77,2.38-5.48,3.38-8.13.12-5.17.22-10.27.28-15.32.06-5.04.16-10.21.29-15.5-3.64,1.13-7.05,3.09-10.24,5.86ZM133.65,229.06c-3.2,2.78-5.98,5.99-8.36,9.64-2.38,3.66-4.29,7.66-5.73,12.01-1.44,4.35-2.16,8.61-2.16,12.77,0,.5.06,1.51.19,3.02.12,1.51.4,3.06.84,4.64.44,1.57,1.16,2.99,2.16,4.25,1,1.26,2.44,1.89,4.32,1.89s3.73-.69,5.54-2.08c1.82-1.39,3.54-3.21,5.17-5.48s3.07-4.79,4.32-7.57c1.25-2.77,2.38-5.48,3.38-8.13.12-5.17.22-10.27.28-15.32.06-5.04.16-10.21.29-15.5-3.64,1.13-7.05,3.09-10.24,5.86ZM217.33,230.01c-.5-2.02-1.37-3.94-2.61-5.77-1.25-1.83-3.3-2.74-6.16-2.74-3.36,0-6.22,1.35-8.58,4.06-2.37,2.71-4.36,6.02-5.98,9.93-1.61,3.91-2.8,8.1-3.54,12.57-.75,4.48-1.12,8.49-1.12,12.01,0,1.14.06,2.53.19,4.16.12,1.64.43,3.25.93,4.83.5,1.57,1.28,2.93,2.33,4.06,1.06,1.14,2.46,1.7,4.2,1.7s3.57-.53,5.5-1.6,3.8-2.46,5.6-4.16c1.8-1.71,3.48-3.6,5.04-5.68,1.55-2.08,2.82-4.06,3.82-5.95.13-4.54.25-9.11.38-13.71.12-4.6.12-9.18,0-13.71ZM217.33,230.01c-.5-2.02-1.37-3.94-2.61-5.77-1.25-1.83-3.3-2.74-6.16-2.74-3.36,0-6.22,1.35-8.58,4.06-2.37,2.71-4.36,6.02-5.98,9.93-1.61,3.91-2.8,8.1-3.54,12.57-.75,4.48-1.12,8.49-1.12,12.01,0,1.14.06,2.53.19,4.16.12,1.64.43,3.25.93,4.83.5,1.57,1.28,2.93,2.33,4.06,1.06,1.14,2.46,1.7,4.2,1.7s3.57-.53,5.5-1.6,3.8-2.46,5.6-4.16c1.8-1.71,3.48-3.6,5.04-5.68,1.55-2.08,2.82-4.06,3.82-5.95.13-4.54.25-9.11.38-13.71.12-4.6.12-9.18,0-13.71ZM133.65,229.06c-3.2,2.78-5.98,5.99-8.36,9.64-2.38,3.66-4.29,7.66-5.73,12.01-1.44,4.35-2.16,8.61-2.16,12.77,0,.5.06,1.51.19,3.02.12,1.51.4,3.06.84,4.64.44,1.57,1.16,2.99,2.16,4.25,1,1.26,2.44,1.89,4.32,1.89s3.73-.69,5.54-2.08c1.82-1.39,3.54-3.21,5.17-5.48s3.07-4.79,4.32-7.57c1.25-2.77,2.38-5.48,3.38-8.13.12-5.17.22-10.27.28-15.32.06-5.04.16-10.21.29-15.5-3.64,1.13-7.05,3.09-10.24,5.86Z"/>
      <text class="cls-2" transform="translate(156.08 15.3)"><tspan x="0" y="0">dairewahandi.or.id</tspan></text>
    </g>
  </g>
</svg>